<svg width="21" height="24" viewBox="0 0 21 24" fill="none" xmlns="http://www.w3.org/2000/svg">
<path fill-rule="evenodd" clip-rule="evenodd" d="M10.3112 5.28958C7.7954 5.28958 5.75602 7.31223 5.75602 9.80724C5.75602 12.3022 7.79545 14.3249 10.3112 14.3249C12.8269 14.3249 14.8663 12.3022 14.8663 9.80724C14.8663 7.31223 12.8269 5.28958 10.3112 5.28958ZM7.27447 9.80724C7.27447 8.14388 8.634 6.79533 10.3112 6.79533C11.9883 6.79533 13.3481 8.14388 13.3481 9.80724C13.3481 11.4706 11.9883 12.8189 10.3112 12.8189C8.634 12.8189 7.27447 11.4706 7.27447 9.80724Z" fill="white"/>
<path fill-rule="evenodd" clip-rule="evenodd" d="M3.01701 17.1911C-0.948379 13.2584 -0.948379 6.88247 3.01701 2.94956C6.98219 -0.983188 13.4112 -0.983188 17.3768 2.94956C21.342 6.88211 21.342 13.2582 17.3768 17.1911L10.7339 23.7794C10.4373 24.0735 9.95682 24.0735 9.66031 23.7794L3.01701 17.1911ZM4.09055 4.01464C0.718252 7.3594 0.718252 12.7818 4.09055 16.1266L10.1971 22.1823L16.303 16.1266C19.6753 12.7821 19.6753 7.3594 16.303 4.01464C12.9307 0.670093 7.46307 0.670093 4.09055 4.01464Z" fill="white"/>
</svg>
