<svg width="24" height="24" viewBox="0 0 24 24" fill="none" xmlns="http://www.w3.org/2000/svg">
<path d="M0.0429688 24L1.70831 17.8388C0.684351 16.0361 0.138613 13.9881 0.14424 11.8945C0.14424 5.33397 5.41032 0 11.8804 0C15.0198 0 17.9679 1.23794 20.179 3.48562C22.3957 5.7333 23.6166 8.7226 23.6109 11.9002C23.6109 18.4607 18.3449 23.7946 11.8748 23.7946H11.8692C9.90563 23.7946 7.97585 23.2926 6.25987 22.3456L0.0429688 24ZM6.55243 20.1892L6.90688 20.406C8.40344 21.3073 10.1194 21.7808 11.8692 21.7865H11.8748C17.2478 21.7865 21.6249 17.3539 21.6249 11.9002C21.6249 9.25885 20.6122 6.77728 18.7724 4.90611C16.9327 3.03494 14.4797 2.00808 11.8748 2.00808C6.49617 2.00808 2.11902 6.44069 2.11902 11.8945C2.11902 13.7599 2.631 15.5797 3.60995 17.1543L3.84063 17.5308L2.85605 21.1761L6.55243 20.1892Z" fill="white"/>
<path d="M8.9425 6.91335C8.72308 6.41704 8.4924 6.40563 8.28424 6.39993C8.11545 6.39422 7.91854 6.39422 7.72162 6.39422C7.5247 6.39422 7.20964 6.46838 6.93958 6.76503C6.66953 7.06168 5.91562 7.78048 5.91562 9.24661C5.91562 10.707 6.96771 12.1218 7.11399 12.3215C7.26027 12.5212 9.14504 15.6188 12.1213 16.8111C14.5968 17.8038 15.1031 17.6041 15.6376 17.5528C16.1777 17.5014 17.3705 16.834 17.618 16.138C17.86 15.442 17.86 14.8487 17.7868 14.7232C17.7137 14.5977 17.5168 14.5235 17.2242 14.3752C16.9316 14.2269 15.4913 13.5081 15.2213 13.4054C14.9512 13.3027 14.7543 13.2571 14.563 13.5537C14.3661 13.8504 13.8035 14.5178 13.6347 14.7175C13.4659 14.9172 13.2915 14.94 12.999 14.7917C12.7064 14.6433 11.7612 14.3296 10.6416 13.3141C9.76954 12.5269 9.17879 11.5513 9.01001 11.2547C8.84123 10.958 8.99313 10.7983 9.13941 10.65C9.26881 10.5188 9.43197 10.302 9.57825 10.1309C9.72453 9.95971 9.77517 9.8342 9.87081 9.63453C9.96646 9.43487 9.92145 9.26372 9.84831 9.1154C9.77517 8.96708 9.2013 7.50095 8.9425 6.91335Z" fill="white"/>
</svg>
