<?xml version="1.0" standalone="no"?>
<!DOCTYPE svg PUBLIC "-//W3C//DTD SVG 20010904//EN"
 "http://www.w3.org/TR/2001/REC-SVG-20010904/DTD/svg10.dtd">
<svg version="1.0" xmlns="http://www.w3.org/2000/svg"
 width="1384.000000pt" height="1384.000000pt" viewBox="0 0 1384.000000 1384.000000"
 preserveAspectRatio="xMidYMid meet">
<metadata>
Created by potrace 1.14, written by Peter Selinger 2001-2017
</metadata>
<g transform="translate(0.000000,1384.000000) scale(0.100000,-0.100000)"
fill="#000000" stroke="none">
<path d="M4801 13804 c-1 -19 -2 -41 -1 -49 0 -32 1 -86 0 -117 0 -18 1 -48 3
-65 2 -18 0 -33 -5 -33 -4 0 -5 -6 -2 -13 8 -23 11 -87 3 -87 -5 0 -5 -10 0
-22 5 -13 5 -33 0 -45 -5 -13 -5 -23 -1 -23 9 0 6 -65 -3 -80 -3 -5 -2 -11 3
-14 9 -5 8 -109 -2 -125 -4 -6 -3 -11 1 -11 10 0 9 -53 -2 -69 -3 -6 -2 -11 2
-11 10 0 9 -53 -2 -69 -3 -6 -2 -11 2 -11 8 0 8 -25 0 -85 -2 -11 -1 -24 2
-30 3 -5 4 -30 2 -55 -3 -61 -3 -59 1 -107 2 -24 0 -43 -5 -43 -4 0 -5 -5 -1
-11 3 -6 7 -35 7 -64 0 -29 -4 -58 -7 -64 -4 -6 -3 -11 1 -11 9 0 8 -74 -2
-90 -3 -6 -2 -10 3 -10 8 0 7 -63 -2 -87 -3 -7 -2 -13 2 -13 9 0 7 -103 -2
-119 -4 -6 -3 -11 1 -11 10 0 9 -53 -2 -69 -3 -6 -2 -11 2 -11 10 0 9 -53 -2
-69 -3 -6 -2 -11 2 -11 5 0 8 -15 6 -32 -2 -18 -3 -46 -3 -63 1 -16 2 -36 1
-42 -1 -14 -1 -25 -1 -78 1 -19 0 -50 0 -67 0 -18 1 -48 3 -65 2 -18 0 -33 -5
-33 -4 0 -5 -6 -2 -13 8 -23 11 -87 2 -87 -4 0 -4 -10 1 -22 5 -13 5 -33 0
-45 -5 -13 -5 -23 0 -23 8 0 5 -65 -4 -80 -3 -5 -2 -11 3 -14 9 -5 8 -109 -2
-125 -4 -6 -3 -11 1 -11 10 0 9 -53 -2 -69 -3 -6 -2 -11 2 -11 10 0 9 -53 -2
-69 -3 -6 -2 -11 2 -11 8 0 8 -25 0 -85 -2 -11 -1 -24 2 -30 3 -5 4 -30 2 -55
-3 -61 -3 -59 1 -107 2 -24 0 -43 -5 -43 -4 0 -5 -5 -1 -11 3 -6 7 -35 7 -64
0 -29 -4 -58 -7 -64 -4 -6 -3 -11 1 -11 9 0 8 -74 -2 -90 -3 -6 -2 -10 3 -10
8 0 7 -63 -2 -87 -3 -7 -2 -13 2 -13 9 0 7 -103 -2 -119 -4 -6 -3 -11 1 -11
10 0 9 -53 -2 -69 -3 -6 -2 -11 2 -11 10 0 9 -53 -2 -69 -3 -6 -2 -11 2 -11 5
0 8 -15 6 -32 -2 -18 -3 -46 -3 -63 1 -16 2 -36 1 -42 -1 -14 -1 -25 -1 -78 1
-19 0 -50 0 -67 0 -18 1 -48 3 -65 2 -18 0 -33 -5 -33 -4 0 -5 -6 -2 -13 8
-23 11 -87 2 -87 -4 0 -4 -10 1 -22 5 -13 5 -33 0 -45 -5 -13 -5 -23 0 -23 8
0 5 -65 -4 -80 -3 -5 -2 -11 3 -14 9 -5 8 -109 -2 -125 -4 -6 -3 -11 1 -11 10
0 9 -53 -2 -69 -3 -6 -2 -11 2 -11 10 0 9 -53 -2 -69 -3 -6 -2 -11 2 -11 8 0
8 -25 0 -85 -2 -11 -1 -24 1 -29 8 -14 6 -111 -1 -123 -4 -7 -4 -14 1 -16 4
-3 7 -21 6 -39 -2 -31 2 -36 45 -58 25 -14 48 -27 51 -30 3 -3 28 -16 55 -29
28 -14 62 -33 78 -44 15 -10 27 -15 27 -12 0 3 12 -2 28 -12 40 -26 57 -36
157 -88 50 -26 93 -53 97 -59 4 -6 8 -7 8 -3 0 5 15 0 33 -11 17 -11 68 -39
112 -62 83 -44 177 -95 255 -138 49 -27 189 -102 260 -140 25 -13 72 -38 105
-56 33 -18 88 -47 123 -65 34 -18 63 -36 64 -40 0 -3 2 -528 4 -1166 1 -638 3
-1163 3 -1167 1 -7 121 51 131 63 3 4 15 9 27 13 13 4 30 14 38 23 9 8 21 16
28 17 6 1 73 35 147 76 74 41 137 75 140 75 3 0 21 10 41 23 20 12 41 22 48
22 6 0 11 5 11 10 0 6 9 10 20 10 11 0 20 4 20 8 0 5 19 16 43 27 23 10 44 21
47 24 3 3 25 16 50 29 25 12 99 52 165 88 66 35 135 72 153 81 23 12 32 24 33
42 0 14 0 519 1 1122 0 1076 0 1096 20 1108 10 6 58 33 106 58 48 25 98 53
112 61 14 9 48 27 75 41 28 13 62 33 78 43 15 11 27 16 27 11 0 -4 4 -3 8 2 4
6 25 19 47 31 40 20 141 75 265 142 266 145 374 202 382 202 4 0 8 4 8 10 0 5
3 9 8 8 4 -1 45 18 92 44 47 25 110 59 140 75 30 16 70 39 89 51 19 11 38 19
43 16 4 -3 8 -2 8 3 0 4 26 21 58 37 31 17 69 38 85 49 15 10 27 15 27 12 0
-4 7 1 17 10 14 14 16 45 17 216 1 109 -3 199 -7 199 -5 0 -5 5 -1 11 10 17
11 99 1 99 -4 0 -5 5 -1 11 10 16 11 199 1 199 -5 0 -5 5 -1 11 9 16 11 99 2
99 -4 0 -4 10 0 23 9 26 8 207 -1 231 -4 9 -3 15 1 12 4 -2 6 21 4 52 -1 32
-2 71 -1 87 5 142 2 445 -4 445 -5 0 -5 5 -1 11 10 17 11 99 1 99 -4 0 -5 5
-1 11 10 16 11 199 1 199 -5 0 -5 5 -1 11 9 16 11 99 2 99 -4 0 -4 10 0 23 6
18 8 91 3 136 -1 5 -49 33 -108 63 -60 29 -111 57 -114 61 -3 5 -9 8 -13 7 -4
-1 -37 13 -74 31 -37 18 -69 34 -72 34 -16 4 -86 42 -92 50 -4 6 -8 6 -8 1 0
-5 -9 -1 -19 8 -11 10 -25 18 -33 20 -7 1 -85 37 -173 81 -88 44 -163 78 -167
77 -5 -1 -8 3 -8 8 0 6 -9 10 -20 10 -11 0 -20 5 -20 10 0 6 -5 10 -12 10 -6
0 -102 44 -212 99 -111 54 -237 116 -281 137 -44 21 -83 43 -87 49 -4 5 -8 7
-8 4 0 -4 -80 32 -177 81 -316 155 -398 194 -405 192 -5 -1 -8 1 -8 5 0 5 -27
19 -60 33 -33 14 -60 28 -60 33 0 4 -5 7 -11 7 -6 0 -108 48 -227 106 -405
199 -607 298 -612 299 -20 6 -47 20 -60 31 -8 7 -18 13 -22 13 -5 1 -101 47
-215 102 -477 233 -568 277 -578 279 -5 1 -17 8 -26 16 -9 8 -19 11 -22 7 -4
-3 -7 -1 -7 5 0 7 -3 11 -7 10 -5 -1 -75 32 -158 72 -82 41 -157 77 -166 81
-14 6 -17 1 -18 -27z"/>
<path d="M11785 10261 c-3 -6 -11 -9 -16 -6 -5 4 -9 2 -9 -2 0 -5 -16 -15 -35
-22 -19 -7 -35 -17 -35 -22 0 -5 -6 -9 -13 -9 -7 0 -47 -20 -90 -44 -42 -24
-77 -41 -77 -38 0 4 -4 2 -8 -4 -4 -5 -24 -18 -44 -27 -20 -10 -40 -22 -43
-27 -3 -6 -15 -10 -26 -10 -10 0 -19 -4 -19 -10 0 -5 -4 -10 -10 -10 -5 0 -32
-13 -60 -30 -27 -16 -50 -26 -50 -22 0 4 -4 2 -8 -3 -4 -6 -29 -22 -57 -36
-46 -24 -117 -62 -240 -131 -27 -15 -66 -35 -85 -44 -19 -9 -41 -21 -49 -27
-7 -6 -20 -12 -29 -13 -8 -2 -18 -6 -21 -11 -6 -7 -47 -30 -196 -107 -33 -17
-62 -33 -65 -36 -3 -4 -23 -15 -45 -26 -22 -11 -78 -41 -125 -66 -47 -25 -110
-59 -140 -74 -30 -16 -58 -33 -62 -39 -4 -5 -8 -6 -8 -2 0 5 -13 -1 -29 -12
-16 -12 -34 -21 -40 -21 -6 0 -11 -5 -11 -10 0 -6 -3 -9 -7 -8 -12 3 -103 -45
-103 -54 0 -4 -9 -8 -19 -8 -11 0 -26 -6 -33 -13 -7 -7 -28 -20 -45 -28 -18
-7 -33 -17 -33 -21 0 -5 -7 -8 -15 -8 -9 0 -32 -11 -53 -24 -20 -13 -55 -32
-77 -43 -22 -11 -74 -38 -115 -61 -106 -57 -171 -93 -275 -147 -49 -27 -91
-52 -93 -56 -2 -5 -12 -9 -22 -9 -10 0 -22 -5 -25 -10 -6 -10 -69 -40 -82 -39
-3 1 -9 -4 -12 -9 -3 -5 -35 -24 -71 -43 -36 -18 -67 -35 -70 -38 -3 -4 -30
-18 -60 -34 -30 -15 -84 -43 -120 -63 -36 -20 -78 -43 -95 -52 -16 -9 -33 -15
-37 -14 -5 1 -8 -3 -8 -8 0 -6 -4 -10 -10 -10 -5 0 -32 -13 -60 -30 -27 -16
-50 -26 -50 -22 0 4 -4 2 -8 -3 -4 -6 -32 -23 -62 -39 -55 -29 -126 -67 -210
-113 -25 -14 -51 -30 -57 -35 -7 -6 -13 -8 -13 -4 0 4 -25 -9 -55 -29 -30 -19
-55 -31 -55 -27 0 4 -4 3 -8 -3 -4 -5 -36 -25 -72 -43 l-65 -34 0 -834 c0
-459 2 -834 4 -834 2 0 51 26 110 57 58 31 133 71 166 87 33 17 62 33 65 36 3
3 43 25 90 49 47 24 90 47 95 52 6 4 53 30 105 57 52 27 118 62 145 77 28 16
93 51 145 78 52 27 97 53 98 58 2 5 10 9 18 9 8 0 32 11 53 24 21 14 42 22 45
19 3 -4 6 -2 6 3 0 5 53 36 118 69 64 33 119 62 122 65 11 12 60 40 60 35 0
-3 18 6 40 20 22 14 44 25 50 25 5 0 10 5 10 11 0 5 5 7 10 4 6 -3 10 -1 10 4
0 6 3 10 8 9 4 -2 61 27 127 63 66 36 145 79 175 95 30 16 58 33 62 39 4 5 8
6 8 2 0 -5 12 0 28 11 15 11 37 23 50 26 12 4 22 12 22 17 0 5 3 8 8 7 10 -3
96 43 104 56 4 6 8 8 8 4 0 -4 21 5 48 20 26 16 70 39 97 53 28 13 52 26 55
30 3 3 32 19 65 36 33 17 85 44 115 60 30 15 57 30 60 33 3 3 35 20 73 39 37
19 67 39 67 45 0 5 3 7 6 3 4 -3 31 7 60 24 l54 30 0 -3996 0 -3995 23 -1
c118 -4 1059 0 1064 5 8 7 8 10234 1 10242 -3 3 -9 0 -13 -5z"/>
<path d="M1960 4892 l0 -4838 568 2 c312 1 569 2 572 3 3 0 5 1398 5 3106 l0
3106 25 -6 c14 -4 31 -11 38 -17 7 -6 32 -21 55 -33 63 -32 211 -112 301 -162
43 -23 80 -43 82 -43 3 0 22 -11 44 -25 22 -14 40 -22 40 -18 0 5 4 3 8 -3 4
-6 25 -20 47 -31 47 -23 168 -88 277 -149 42 -24 82 -45 90 -46 7 -2 15 -6 18
-9 7 -9 108 -59 116 -58 4 0 10 -3 13 -9 6 -8 234 -134 376 -206 33 -17 62
-33 65 -36 3 -3 23 -14 45 -26 22 -11 65 -34 95 -51 106 -58 255 -137 277
-147 13 -6 23 -14 23 -18 0 -5 9 -8 20 -8 11 0 20 -4 20 -9 0 -5 11 -12 24
-15 14 -3 31 -12 38 -19 7 -6 47 -29 88 -50 73 -36 157 -81 270 -144 30 -16
80 -43 110 -58 30 -16 63 -36 73 -44 9 -8 17 -10 17 -6 0 4 8 2 18 -6 20 -16
77 -49 86 -49 3 0 6 636 6 1414 l0 1415 -27 14 c-16 7 -59 31 -98 52 -38 21
-95 51 -125 67 -30 17 -59 34 -65 39 -5 5 -17 9 -27 9 -10 0 -18 4 -18 8 0 4
-15 15 -32 23 -44 20 -162 83 -168 89 -3 3 -36 21 -73 40 -38 19 -71 38 -73
42 -3 5 -14 8 -24 8 -10 0 -20 4 -22 8 -3 9 -14 15 -115 67 -32 16 -59 33 -61
37 -2 4 -12 8 -23 8 -10 0 -19 4 -19 8 0 5 -16 14 -35 22 -19 8 -35 17 -35 21
0 6 -36 19 -44 16 -2 -1 -12 5 -22 14 -11 9 -39 26 -64 39 -25 13 -72 37 -105
54 -33 17 -62 33 -65 36 -5 5 -17 12 -175 95 -49 26 -103 56 -120 65 -16 9
-70 39 -120 65 -158 83 -170 90 -175 95 -3 3 -27 16 -55 29 -27 14 -62 33 -77
44 -16 10 -28 15 -28 10 0 -4 -4 -3 -8 2 -4 6 -29 22 -57 36 -123 64 -140 73
-146 82 -3 4 -12 9 -20 10 -8 2 -30 11 -49 22 -19 11 -53 29 -75 40 -22 11
-42 22 -45 25 -7 7 -36 23 -178 96 -70 37 -134 73 -143 81 -9 7 -26 16 -39 18
-13 2 -30 11 -39 18 -9 8 -65 40 -124 71 -60 31 -123 65 -140 75 -18 10 -66
35 -107 57 -41 21 -76 42 -78 47 -2 4 -12 7 -23 7 -10 0 -19 4 -19 8 0 5 -16
14 -35 22 -19 8 -35 17 -35 22 0 4 -9 8 -19 8 -11 0 -21 3 -23 8 -1 4 -23 18
-48 31 -100 52 -297 158 -367 197 l-43 24 0 -4838z"/>
<path d="M10205 7188 c-33 -17 -62 -33 -65 -37 -3 -3 -36 -22 -75 -41 -38 -19
-81 -43 -94 -52 -13 -10 -27 -15 -32 -12 -5 3 -9 1 -9 -3 0 -5 -15 -16 -32
-24 -18 -8 -62 -31 -98 -51 -36 -19 -96 -52 -135 -73 -187 -100 -222 -119
-242 -133 -13 -8 -23 -10 -23 -6 0 5 -4 4 -8 -2 -4 -6 -32 -24 -62 -39 -30
-16 -66 -36 -80 -45 -14 -10 -36 -21 -50 -25 -14 -4 -27 -11 -30 -15 -5 -6
-116 -66 -265 -144 -33 -17 -62 -33 -65 -36 -3 -3 -34 -20 -70 -39 -93 -48
-120 -63 -162 -88 -21 -13 -38 -20 -38 -16 0 5 -4 4 -8 -2 -7 -10 -39 -29
-127 -73 -27 -14 -52 -28 -55 -31 -3 -3 -41 -24 -85 -46 -44 -22 -82 -43 -85
-46 -3 -3 -23 -14 -45 -25 -104 -52 -171 -89 -177 -98 -4 -6 -8 -7 -8 -2 0 5
-6 3 -13 -3 -8 -6 -54 -31 -103 -57 -49 -26 -93 -50 -99 -54 -5 -4 -57 -32
-115 -63 -58 -30 -125 -67 -150 -80 -25 -14 -78 -42 -117 -62 -40 -20 -73 -41
-73 -46 0 -5 -3 -8 -7 -7 -11 3 -101 -41 -109 -53 -3 -5 -14 -9 -24 -9 -10 0
-20 -4 -22 -9 -1 -5 -37 -25 -78 -46 -41 -21 -77 -40 -80 -44 -6 -8 -78 -41
-86 -40 -4 0 -10 -5 -15 -12 -4 -7 -14 -14 -23 -15 -8 -1 -29 -12 -45 -23 -16
-12 -36 -21 -44 -21 -9 0 -17 -4 -19 -8 -3 -8 -173 -101 -293 -162 -27 -14
-54 -29 -60 -33 -5 -4 -26 -16 -45 -26 l-35 -18 -1 -259 c-1 -275 2 -294 48
-294 10 0 18 -4 18 -8 0 -4 43 -29 95 -56 52 -26 97 -52 101 -57 3 -5 10 -7
15 -4 5 4 9 1 9 -4 0 -6 4 -11 10 -11 5 0 54 -24 107 -54 103 -56 187 -102
288 -156 33 -18 66 -37 73 -42 6 -6 12 -7 12 -2 0 5 4 5 8 -1 4 -5 25 -19 47
-31 39 -20 150 -79 250 -134 60 -33 183 -99 245 -131 25 -13 47 -27 48 -31 2
-5 12 -8 22 -8 10 0 20 -3 22 -7 2 -5 26 -20 53 -34 l50 -26 3 -1862 2 -1861
1210 0 c1145 0 1210 1 1211 18 4 75 3 7182 -1 7181 -3 -1 -32 -15 -65 -31z"/>
<path d="M3503 2760 l0 -2740 1976 0 1976 0 -1 1678 -2 1677 -63 37 c-35 21
-70 38 -76 38 -7 0 -13 5 -13 10 0 6 -6 10 -12 10 -7 0 -39 16 -70 35 -32 19
-58 32 -58 28 0 -3 -8 0 -17 8 -31 25 -80 49 -87 42 -3 -3 -6 -2 -6 4 0 5 -33
26 -72 47 -83 43 -114 60 -180 98 -27 15 -48 25 -48 22 0 -3 -7 2 -16 10 -8 9
-20 14 -25 11 -5 -4 -9 -2 -9 3 0 5 -15 15 -32 23 -18 7 -35 15 -38 19 -3 3
-27 17 -55 30 -27 14 -51 28 -53 33 -2 4 -8 7 -13 7 -6 0 -74 35 -152 78 -78
42 -164 88 -192 102 -27 14 -52 28 -55 31 -3 3 -52 30 -110 60 -58 30 -107 57
-108 62 -2 4 -7 5 -12 2 -4 -3 -13 2 -20 10 -7 8 -16 15 -20 15 -4 0 -43 20
-86 43 -95 53 -269 146 -449 242 -49 26 -103 55 -120 65 -33 19 -124 69 -230
125 -38 20 -76 41 -82 47 -7 6 -13 7 -13 4 0 -4 -17 5 -37 19 -21 14 -43 25
-50 25 -6 0 -18 6 -25 13 -7 6 -33 23 -58 35 -129 68 -260 138 -302 163 -27
16 -48 25 -48 21 0 -4 -4 -2 -8 3 -8 11 -9 12 -137 80 -49 26 -117 62 -150 80
-152 83 -295 160 -350 188 -33 17 -63 36 -67 42 -5 6 -8 6 -8 0 0 -5 -4 -4 -9
3 -4 7 -14 14 -22 15 -8 2 -25 10 -39 20 -13 9 -29 17 -36 17 -8 0 -11 -733
-11 -2740z"/>
</g>
</svg>
