<svg width="55" height="64" viewBox="0 0 55 64" fill="none" xmlns="http://www.w3.org/2000/svg">
<path d="M27.5007 63.9991C27.0058 63.9991 26.5081 63.8531 26.0836 63.5556C2.76189 47.385 0.910156 31.65 0.910156 12.7564C0.910156 11.5613 1.75693 10.5278 2.93196 10.3065C15.5935 7.87854 25.9484 0.541839 26.0517 0.466469C26.919 -0.15549 28.0868 -0.15549 28.9517 0.466469C29.0541 0.539522 39.409 7.87931 52.0715 10.3063C53.2463 10.5302 54.0933 11.5613 54.0933 12.7564C54.0933 31.65 52.2406 47.385 28.9198 63.5572C28.5025 63.8463 28.007 64.0008 27.4996 64L27.5007 63.9991ZM5.90121 14.7783C6.03612 31.8849 8.1785 44.5356 27.5007 58.4498C46.8229 44.5369 48.9661 31.8849 49.1002 14.7783C38.9898 12.4398 30.7339 7.58741 27.5007 5.4982C24.2676 7.58741 16.0122 12.4398 5.90121 14.7783Z" fill="#2D4C7C"/>
<path d="M26.3783 41.2845C25.5469 41.2854 24.7487 40.9586 24.1559 40.3748L15.8269 32.1896C14.5765 30.9619 14.5561 28.9504 15.7836 27.698C17.0092 26.448 19.0189 26.425 20.2694 27.6547L26.3548 33.634L38.4623 21.5039C39.7012 20.2629 41.7116 20.2629 42.9505 21.5039C44.1893 22.7449 44.1893 24.7587 42.9505 25.9998L28.6205 40.3518C28.3263 40.6473 27.9768 40.8818 27.5921 41.0418C27.2073 41.2019 26.7949 41.2844 26.3783 41.2847V41.2845Z" fill="#2D4C7C"/>
</svg>
