<svg width="66" height="66" viewBox="0 0 66 66" fill="none" xmlns="http://www.w3.org/2000/svg">
<path d="M60.6863 0.701172H33.0018C31.7784 0.702393 30.6055 1.18891 29.7405 2.05396C28.8754 2.919 28.3889 4.09191 28.3877 5.31526V28.3857H5.31722C4.09386 28.3869 2.92096 28.8735 2.05591 29.7385C1.19086 30.6036 0.704347 31.7765 0.703125 32.9998V65.2985H65.3004V5.31526C65.299 4.09196 64.8124 2.91917 63.9474 2.05416C63.0824 1.18915 61.9096 0.702576 60.6863 0.701172ZM16.8524 60.6844V44.535H26.0806V60.6844H16.8524ZM60.6863 60.6844H30.6947V42.228C30.6947 41.6161 30.4517 41.0293 30.019 40.5967C29.5864 40.164 28.9995 39.921 28.3877 39.921H14.5454C13.9335 39.921 13.3467 40.164 12.9141 40.5967C12.4814 41.0293 12.2384 41.6161 12.2384 42.228V60.6844H5.31722V32.9998H33.0018V5.31526H60.6863V60.6844Z" fill="#2D4C7C"/>
<path d="M37.6172 14.5431H42.2313V19.1572H37.6172V14.5431Z" fill="#2D4C7C"/>
<path d="M51.459 14.5431H56.0731V19.1572H51.459V14.5431Z" fill="#2D4C7C"/>
<path d="M37.6172 28.3857H42.2313V32.9998H37.6172V28.3857Z" fill="#2D4C7C"/>
<path d="M51.459 28.3857H56.0731V32.9998H51.459V28.3857Z" fill="#2D4C7C"/>
<path d="M37.6172 42.2267H42.2313V46.8408H37.6172V42.2267Z" fill="#2D4C7C"/>
<path d="M51.459 42.2267H56.0731V46.8408H51.459V42.2267Z" fill="#2D4C7C"/>
<path d="M0.703125 19.1575H12.2384V23.7705H0.703125V19.1575Z" fill="#2D4C7C"/>
<path d="M19.1602 0.701172H23.7742V12.2364H19.1602V0.701172Z" fill="#2D4C7C"/>
<path d="M5.31836 8.57708L8.58069 5.31476L16.8536 13.5877L13.5913 16.85L5.31836 8.57708Z" fill="#2D4C7C"/>
</svg>
