<svg width="25" height="24" viewBox="0 0 25 24" fill="none" xmlns="http://www.w3.org/2000/svg">
<g clip-path="url(#clip0_721_169)">
<path d="M6.84504 23.5691C8.56547 23.8553 10.3065 23.9994 12.0506 24C13.7946 23.9994 15.5355 23.8553 17.2559 23.5691C17.4931 23.5042 17.7107 23.3819 17.8895 23.213C18.0683 23.0442 18.2028 22.834 18.2812 22.6009C18.3596 22.3678 18.3795 22.1189 18.339 21.8763C18.2985 21.6337 18.199 21.4048 18.0492 21.2098C17.8994 21.0147 17.7039 20.8596 17.4799 20.7579C17.2559 20.6563 17.0104 20.6114 16.765 20.627C13.6444 21.1445 10.4598 21.1445 7.33923 20.627C6.36106 20.4668 5.45777 20.0038 4.75654 19.3032C4.05532 18.6026 3.59149 17.6997 3.43036 16.7216C2.91042 13.601 2.91042 10.4158 3.43036 7.29518C3.59003 6.31672 4.05277 5.41307 4.75334 4.71163C5.45397 4.01018 6.35719 3.54649 7.33551 3.38603C10.4561 2.86852 13.6407 2.86852 16.7613 3.38603C17.7395 3.54618 18.6427 4.00918 19.3439 4.70981C20.0452 5.41033 20.5091 6.31327 20.6701 7.29138C20.9243 8.85001 21.0496 10.4269 21.0448 12.0062V12.9432C21.0448 13.5457 20.7236 14.1024 20.2018 14.4039C19.6801 14.7053 19.037 14.7053 18.5153 14.4039C17.9936 14.1025 17.672 13.5457 17.672 12.9432V12.0062C17.6752 11.1452 17.4811 10.2949 17.1048 9.52044C16.7285 8.74602 16.1799 8.06804 15.5011 7.53845C14.8222 7.00881 14.0311 6.64164 13.1884 6.46507C12.3457 6.28851 11.4738 6.30724 10.6395 6.51984C9.80512 6.73236 9.0305 7.13309 8.37497 7.69134C7.71945 8.24958 7.20043 8.9505 6.85769 9.74039C6.51494 10.5303 6.35758 11.3882 6.39767 12.2483C6.43775 13.1084 6.67421 13.9479 7.08893 14.7025C7.50359 15.4571 8.08551 16.1068 8.79007 16.6017C9.49463 17.0966 10.3031 17.4236 11.1536 17.5577C12.0041 17.6918 12.874 17.6293 13.6966 17.3752C14.5193 17.1211 15.2728 16.6819 15.8995 16.0915C16.3208 16.5568 16.8314 16.9325 17.401 17.1962C17.9706 17.46 18.5874 17.6064 19.2147 17.6267C19.842 17.647 20.467 17.5408 21.0525 17.3144C21.6379 17.0881 22.1717 16.7462 22.6222 16.3091C23.0728 15.8722 23.4308 15.3489 23.6749 14.7707C23.919 14.1924 24.0442 13.5709 24.043 12.9432V11.2567C24.0092 9.76338 23.8703 8.27428 23.6272 6.80047C23.3638 5.2059 22.6077 3.73388 21.4649 2.59114C20.3223 1.44826 18.8503 0.692042 17.2559 0.428706C13.8091 -0.142902 10.2917 -0.142902 6.84488 0.428706C5.25027 0.69167 3.77812 1.44768 2.63529 2.59051C1.49251 3.73335 0.736643 5.20565 0.473959 6.80039C-0.100695 10.2472 -0.100695 13.7653 0.473959 17.2121C0.740078 18.8039 1.4974 20.2726 2.63985 21.4125C3.7823 22.5523 5.25273 23.3067 6.84504 23.5691ZM12.0506 14.6302C11.7061 14.6302 11.3649 14.5624 11.0467 14.4305C10.7284 14.2987 10.4392 14.1054 10.1956 13.8617C9.70772 13.3688 9.43481 12.7028 9.43655 12.0093C9.4383 11.3158 9.71456 10.6512 10.2049 10.1608C10.6953 9.67035 11.3599 9.39407 12.0533 9.39233C12.7468 9.39058 13.4128 9.66351 13.9056 10.1514C14.3974 10.6435 14.6737 11.3108 14.6738 12.0065C14.6738 12.351 14.606 12.6922 14.4741 13.0105C14.3423 13.3288 14.1491 13.618 13.9055 13.8616C13.662 14.1053 13.3728 14.2985 13.0545 14.4304C12.7362 14.5623 12.3951 14.6301 12.0506 14.6302Z" fill="white" stroke="#2A2E49"/>
</g>
<defs>
<clipPath id="clip0_721_169">
<rect x="0.0429688" width="24" height="24" rx="12" fill="white"/>
</clipPath>
</defs>
</svg>
