<svg width="24" height="24" viewBox="0 0 24 24" fill="none" xmlns="http://www.w3.org/2000/svg">
<path d="M7.93715 12C7.93715 9.79094 9.70363 7.99968 11.8833 7.99968C14.0629 7.99968 15.8304 9.79094 15.8304 12C15.8304 14.2091 14.0629 16.0003 11.8833 16.0003C9.70363 16.0003 7.93715 14.2091 7.93715 12ZM5.80343 12C5.80343 15.4032 8.52537 18.1619 11.8833 18.1619C15.2412 18.1619 17.9631 15.4032 17.9631 12C17.9631 8.5968 15.2412 5.83814 11.8833 5.83814C8.52537 5.83814 5.80343 8.5968 5.80343 12ZM16.783 5.59382C16.7827 6.38911 17.4186 7.03408 18.2033 7.0344C18.988 7.03472 19.6244 6.39027 19.6247 5.59498C19.625 4.79969 18.9891 4.15472 18.2044 4.1544H18.2038C17.4195 4.15477 16.7837 4.79891 16.783 5.59382ZM7.0998 21.7677C5.94541 21.7144 5.31797 21.5196 4.901 21.3549C4.3482 21.1368 3.95378 20.877 3.53908 20.4573C3.12439 20.0376 2.86769 19.6382 2.65343 19.078C2.49088 18.6556 2.2986 18.0195 2.24612 16.8495C2.18872 15.5846 2.17726 15.2047 2.17726 12.0001C2.17726 8.79552 2.18967 8.41661 2.24612 7.15066C2.29869 5.9807 2.4924 5.34586 2.65343 4.92221C2.86864 4.36195 3.12496 3.96221 3.53908 3.54192C3.95321 3.12163 4.34726 2.86147 4.901 2.64432C5.31778 2.47958 5.94541 2.2847 7.0998 2.23152C8.34786 2.17334 8.72277 2.16173 11.8833 2.16173C15.0438 2.16173 15.4191 2.1743 16.6682 2.23152C17.8226 2.2848 18.449 2.48112 18.867 2.64432C19.4198 2.86147 19.8142 3.12221 20.2289 3.54192C20.6436 3.96163 20.8994 4.36195 21.1146 4.92221C21.2771 5.34461 21.4694 5.9807 21.5219 7.15066C21.5793 8.41661 21.5907 8.79552 21.5907 12.0001C21.5907 15.2047 21.5793 15.5836 21.5219 16.8495C21.4693 18.0195 21.2761 18.6554 21.1146 19.078C20.8994 19.6382 20.643 20.038 20.2289 20.4573C19.8148 20.8766 19.4198 21.1368 18.867 21.3549C18.4502 21.5196 17.8226 21.7145 16.6682 21.7677C15.4201 21.8259 15.0452 21.8375 11.8833 21.8375C8.72135 21.8375 8.34748 21.8259 7.0998 21.7677ZM7.00176 0.072672C5.74129 0.130848 4.87998 0.333408 4.12778 0.630048C3.34879 0.936384 2.68933 1.34736 2.03034 2.01418C1.37136 2.68099 0.966892 3.3504 0.664633 4.1399C0.37194 4.90272 0.172076 5.77517 0.114674 7.05264C0.0563246 8.33213 0.0429688 8.74118 0.0429688 12C0.0429688 15.2588 0.0563246 15.6679 0.114674 16.9474C0.172076 18.2249 0.37194 19.0973 0.664633 19.8601C0.966892 20.6491 1.37145 21.3193 2.03034 21.9858C2.68923 22.6524 3.34879 23.0628 4.12778 23.37C4.8814 23.6666 5.74129 23.8692 7.00176 23.9273C8.26488 23.9855 8.66784 24 11.8833 24C15.0987 24 15.5023 23.9865 16.7648 23.9273C18.0254 23.8692 18.8861 23.6666 19.6388 23.37C20.4173 23.0628 21.0772 22.6526 21.7362 21.9858C22.3952 21.319 22.7988 20.6491 23.1019 19.8601C23.3946 19.0973 23.5954 18.2248 23.6519 16.9474C23.7093 15.6669 23.7227 15.2588 23.7227 12C23.7227 8.74118 23.7093 8.33213 23.6519 7.05264C23.5945 5.77507 23.3946 4.90224 23.1019 4.1399C22.7988 3.35088 22.3942 2.68205 21.7362 2.01418C21.0783 1.3463 20.4173 0.936384 19.6397 0.630048C18.8861 0.333408 18.0253 0.129888 16.7658 0.072672C15.5033 0.014496 15.0997 0 11.8842 0C8.66878 0 8.26488 0.013536 7.00176 0.072672Z" fill="white"/>
</svg>
