<svg width="241" height="154" viewBox="0 0 241 154" fill="none" xmlns="http://www.w3.org/2000/svg">
<g filter="url(#filter0_d_501_2)">
<path fill-rule="evenodd" clip-rule="evenodd" d="M188.233 68.9688C176.584 64.0093 149.773 60.5391 118.559 60.5391C87.3451 60.5391 60.5335 64.0093 48.8845 68.9688C62.5542 64.7053 88.6338 61.8243 118.559 61.8243C148.484 61.8243 174.564 64.7053 188.233 68.9688Z" fill="url(#paint0_linear_501_2)"/>
<path d="M124.469 25.3264V32.7228L136.169 25.8668V61.3686H140.618V15.8633L124.469 25.3264Z" fill="white" stroke="white" stroke-width="0.0762" stroke-miterlimit="22.9256"/>
<path d="M118.227 38.846V41.1961L124.465 44.8528V61.3698H134.375V29.3828L118.227 38.846Z" fill="white"/>
<path d="M122.844 46.4675L106.695 37.0039V61.3704H122.844V46.4675Z" fill="white"/>
<path d="M105.075 33.5797L116.538 40.298V27.7233L100.391 18.2598V61.2211H105.075V33.5797Z" fill="white"/>
<path d="M118.155 36.4192L122.84 33.6744V23.7115L129.825 19.6193V9.4631L112 0V22.4082L118.155 26.0154V36.4192Z" fill="white"/>
<mask id="path-7-inside-1_501_2" fill="white">
<path d="M4 116.827L9.13207 114.692C9.49505 114.543 9.78296 114.339 10.0208 114.067C10.2587 113.808 10.3713 113.4 10.3713 112.87V74.9055C10.3713 74.4159 10.2461 74.0488 10.0083 73.7769C9.75791 73.5049 9.47008 73.3145 9.13207 73.1922L4 71.0573V67.957H45.282V82.5609H40.8509L38.9483 75.4493C38.8356 75.0142 38.6604 74.6743 38.4225 74.4431C38.1972 74.1984 37.8843 74.076 37.5088 74.076H21.4241V90.638H30.7369C31.2001 90.638 31.5255 90.5156 31.7133 90.2708C31.901 90.0397 32.0512 89.727 32.1639 89.3326L33.9664 83.54H37.6465V103.61H33.9664L32.1639 97.8584C32.0387 97.396 31.876 97.0561 31.7008 96.8386C31.5255 96.621 31.2001 96.5122 30.7369 96.5122H21.4241V112.884C21.4241 113.414 21.5493 113.808 21.7996 114.08C22.0625 114.339 22.3754 114.543 22.7509 114.692L28.1959 116.827V119.927H4V116.827ZM192.914 116.827L198.046 114.692C198.409 114.543 198.697 114.339 198.935 114.067C199.173 113.808 199.285 113.4 199.285 112.87V74.9055C199.285 74.4159 199.16 74.0488 198.922 73.7769C198.672 73.5049 198.384 73.3145 198.046 73.1922L192.914 71.0573V67.957H234.472V82.5609H230.028L228.088 75.4493C227.975 75.0142 227.812 74.6743 227.587 74.4431C227.374 74.1984 227.074 74.076 226.686 74.076H210.338V89.9853H219.351C219.814 89.9853 220.139 89.8765 220.314 89.6725C220.49 89.4685 220.652 89.1287 220.778 88.6527L222.58 82.9689H226.285V102.876H222.58L220.778 97.2329C220.665 96.825 220.515 96.4986 220.327 96.2403C220.139 95.9818 219.814 95.8595 219.351 95.8595H210.338V113.808H229.264C229.59 113.808 229.89 113.686 230.141 113.428C230.403 113.169 230.579 112.843 230.666 112.421L232.569 104.426H237V119.927H192.914V116.827ZM72.2791 121.027C68.7356 121.027 65.6084 120.453 62.8862 119.316C60.1752 118.18 57.8804 116.542 56.0243 114.404C54.157 112.278 52.7509 109.699 51.7947 106.681C50.8273 103.663 50.3549 100.266 50.3549 96.5141C50.3549 92.9704 50.8498 89.7076 51.851 86.726C52.8521 83.7566 54.292 81.1781 56.1818 79.0031C58.0717 76.8279 60.3777 75.1416 63.0999 73.9318C65.8222 72.7221 68.9044 72.1232 72.3353 72.1232C76.0812 72.1232 79.3209 72.7465 82.0544 73.9807C84.7991 75.2149 87.0715 76.9257 88.8826 79.113C90.6936 81.3004 92.0322 83.8787 92.9209 86.8604C93.7983 89.8421 94.237 93.0558 94.237 96.5141C94.237 98.5792 94.0458 100.608 93.6634 102.624C93.2922 104.628 92.7184 106.547 91.9535 108.355C91.1998 110.176 90.2324 111.85 89.0512 113.402C87.8701 114.942 86.464 116.274 84.8329 117.41C83.2018 118.534 81.3457 119.426 79.2534 120.062C77.1611 120.709 74.8438 121.027 72.2791 121.027ZM72.729 115.748C74.5289 115.748 76.1037 115.308 77.4536 114.416C78.8035 113.524 79.9283 112.278 80.8282 110.689C81.7282 109.088 82.4032 107.182 82.8419 104.958C83.2806 102.734 83.4943 100.266 83.4943 97.5528C83.4943 94.4489 83.2693 91.6506 82.8081 89.1699C82.3469 86.6893 81.6382 84.5753 80.6596 82.84C79.6921 81.1048 78.4773 79.7607 77.0036 78.8198C75.53 77.8788 73.7977 77.4022 71.7954 77.4022C69.8831 77.4022 68.2407 77.8788 66.8908 78.8319C65.541 79.7851 64.4385 81.0804 63.5611 82.7057C62.695 84.3309 62.0651 86.2372 61.6713 88.4245C61.2888 90.5997 61.0864 92.9337 61.0864 95.4021C61.0864 98.4815 61.3113 101.268 61.7613 103.773C62.2112 106.266 62.92 108.404 63.8648 110.176C64.8097 111.96 66.0246 113.329 67.4983 114.294C68.9607 115.259 70.7043 115.748 72.729 115.748ZM100.191 117.141L104.803 115.223C105.107 115.088 105.365 114.905 105.59 114.661C105.804 114.428 105.916 114.062 105.916 113.585V79.4674C105.916 79.0275 105.804 78.6976 105.59 78.4531C105.365 78.2087 105.107 78.0377 104.803 77.9277L100.191 76.0091V73.2231H121.789C123.982 73.2231 125.917 73.3819 127.571 73.7118C129.236 74.0417 130.664 74.4817 131.845 75.0438C133.038 75.6182 134.028 76.2658 134.804 77.0234C135.58 77.7689 136.199 78.5876 136.649 79.4674C137.099 80.3472 137.414 81.2514 137.594 82.2047C137.774 83.1455 137.864 84.0988 137.864 85.0519C137.864 86.8604 137.605 88.449 137.087 89.8176C136.559 91.1863 135.895 92.3593 135.074 93.3492C134.253 94.339 133.33 95.1577 132.318 95.8298C131.294 96.4896 130.293 97.0151 129.314 97.4062L139.393 113.414C139.528 113.61 139.686 113.817 139.855 114.05C140.023 114.282 140.215 114.49 140.428 114.685C140.642 114.881 140.856 115.064 141.092 115.223C141.317 115.382 141.542 115.504 141.767 115.565L146.356 117.129V119.927H135.344C134.32 119.927 133.51 119.842 132.914 119.671C132.318 119.487 131.8 119.231 131.384 118.864C130.968 118.51 130.585 118.046 130.259 117.483C129.933 116.921 129.528 116.249 129.044 115.467L119.921 100.351L115.849 99.2147V113.585C115.849 114.062 115.951 114.428 116.176 114.661C116.4 114.905 116.671 115.088 117.019 115.223L121.721 117.141V119.927H100.191V117.141ZM120.169 95.2921C121.406 95.2921 122.475 95.0477 123.375 94.5589C124.275 94.0701 125.017 93.4347 125.591 92.6526C126.176 91.8705 126.603 90.9663 126.885 89.952C127.166 88.9255 127.301 87.8868 127.301 86.8238C127.301 83.9765 126.648 81.9113 125.321 80.6038C124.005 79.2963 122.081 78.6487 119.561 78.6487H115.849V94.9011C116.007 94.9499 116.277 94.9866 116.659 95.0355C117.03 95.0721 117.447 95.1211 117.885 95.1577C118.324 95.2066 118.752 95.2433 119.179 95.2554C119.595 95.2799 119.921 95.2921 120.169 95.2921ZM155.899 117.141L160.814 115.186C161.197 115.052 161.489 114.868 161.681 114.636C161.883 114.392 161.984 114.037 161.984 113.561V78.5754H153.221C152.861 78.5754 152.58 78.6731 152.389 78.8808C152.186 79.0886 152.04 79.3941 151.939 79.8096L150.195 86.8604H146.27V73.2231H187.666V86.8604H183.706L181.996 79.8096C181.895 79.4185 181.737 79.113 181.513 78.9052C181.287 78.6853 181.029 78.5754 180.736 78.5754H171.917V113.561C171.917 114.037 172.03 114.404 172.277 114.648C172.513 114.905 172.783 115.076 173.087 115.186L178.037 117.141V119.927H155.899V117.141Z"/>
</mask>
<path d="M4 116.827L9.13207 114.692C9.49505 114.543 9.78296 114.339 10.0208 114.067C10.2587 113.808 10.3713 113.4 10.3713 112.87V74.9055C10.3713 74.4159 10.2461 74.0488 10.0083 73.7769C9.75791 73.5049 9.47008 73.3145 9.13207 73.1922L4 71.0573V67.957H45.282V82.5609H40.8509L38.9483 75.4493C38.8356 75.0142 38.6604 74.6743 38.4225 74.4431C38.1972 74.1984 37.8843 74.076 37.5088 74.076H21.4241V90.638H30.7369C31.2001 90.638 31.5255 90.5156 31.7133 90.2708C31.901 90.0397 32.0512 89.727 32.1639 89.3326L33.9664 83.54H37.6465V103.61H33.9664L32.1639 97.8584C32.0387 97.396 31.876 97.0561 31.7008 96.8386C31.5255 96.621 31.2001 96.5122 30.7369 96.5122H21.4241V112.884C21.4241 113.414 21.5493 113.808 21.7996 114.08C22.0625 114.339 22.3754 114.543 22.7509 114.692L28.1959 116.827V119.927H4V116.827ZM192.914 116.827L198.046 114.692C198.409 114.543 198.697 114.339 198.935 114.067C199.173 113.808 199.285 113.4 199.285 112.87V74.9055C199.285 74.4159 199.16 74.0488 198.922 73.7769C198.672 73.5049 198.384 73.3145 198.046 73.1922L192.914 71.0573V67.957H234.472V82.5609H230.028L228.088 75.4493C227.975 75.0142 227.812 74.6743 227.587 74.4431C227.374 74.1984 227.074 74.076 226.686 74.076H210.338V89.9853H219.351C219.814 89.9853 220.139 89.8765 220.314 89.6725C220.49 89.4685 220.652 89.1287 220.778 88.6527L222.58 82.9689H226.285V102.876H222.58L220.778 97.2329C220.665 96.825 220.515 96.4986 220.327 96.2403C220.139 95.9818 219.814 95.8595 219.351 95.8595H210.338V113.808H229.264C229.59 113.808 229.89 113.686 230.141 113.428C230.403 113.169 230.579 112.843 230.666 112.421L232.569 104.426H237V119.927H192.914V116.827ZM72.2791 121.027C68.7356 121.027 65.6084 120.453 62.8862 119.316C60.1752 118.18 57.8804 116.542 56.0243 114.404C54.157 112.278 52.7509 109.699 51.7947 106.681C50.8273 103.663 50.3549 100.266 50.3549 96.5141C50.3549 92.9704 50.8498 89.7076 51.851 86.726C52.8521 83.7566 54.292 81.1781 56.1818 79.0031C58.0717 76.8279 60.3777 75.1416 63.0999 73.9318C65.8222 72.7221 68.9044 72.1232 72.3353 72.1232C76.0812 72.1232 79.3209 72.7465 82.0544 73.9807C84.7991 75.2149 87.0715 76.9257 88.8826 79.113C90.6936 81.3004 92.0322 83.8787 92.9209 86.8604C93.7983 89.8421 94.237 93.0558 94.237 96.5141C94.237 98.5792 94.0458 100.608 93.6634 102.624C93.2922 104.628 92.7184 106.547 91.9535 108.355C91.1998 110.176 90.2324 111.85 89.0512 113.402C87.8701 114.942 86.464 116.274 84.8329 117.41C83.2018 118.534 81.3457 119.426 79.2534 120.062C77.1611 120.709 74.8438 121.027 72.2791 121.027ZM72.729 115.748C74.5289 115.748 76.1037 115.308 77.4536 114.416C78.8035 113.524 79.9283 112.278 80.8282 110.689C81.7282 109.088 82.4032 107.182 82.8419 104.958C83.2806 102.734 83.4943 100.266 83.4943 97.5528C83.4943 94.4489 83.2693 91.6506 82.8081 89.1699C82.3469 86.6893 81.6382 84.5753 80.6596 82.84C79.6921 81.1048 78.4773 79.7607 77.0036 78.8198C75.53 77.8788 73.7977 77.4022 71.7954 77.4022C69.8831 77.4022 68.2407 77.8788 66.8908 78.8319C65.541 79.7851 64.4385 81.0804 63.5611 82.7057C62.695 84.3309 62.0651 86.2372 61.6713 88.4245C61.2888 90.5997 61.0864 92.9337 61.0864 95.4021C61.0864 98.4815 61.3113 101.268 61.7613 103.773C62.2112 106.266 62.92 108.404 63.8648 110.176C64.8097 111.96 66.0246 113.329 67.4983 114.294C68.9607 115.259 70.7043 115.748 72.729 115.748ZM100.191 117.141L104.803 115.223C105.107 115.088 105.365 114.905 105.59 114.661C105.804 114.428 105.916 114.062 105.916 113.585V79.4674C105.916 79.0275 105.804 78.6976 105.59 78.4531C105.365 78.2087 105.107 78.0377 104.803 77.9277L100.191 76.0091V73.2231H121.789C123.982 73.2231 125.917 73.3819 127.571 73.7118C129.236 74.0417 130.664 74.4817 131.845 75.0438C133.038 75.6182 134.028 76.2658 134.804 77.0234C135.58 77.7689 136.199 78.5876 136.649 79.4674C137.099 80.3472 137.414 81.2514 137.594 82.2047C137.774 83.1455 137.864 84.0988 137.864 85.0519C137.864 86.8604 137.605 88.449 137.087 89.8176C136.559 91.1863 135.895 92.3593 135.074 93.3492C134.253 94.339 133.33 95.1577 132.318 95.8298C131.294 96.4896 130.293 97.0151 129.314 97.4062L139.393 113.414C139.528 113.61 139.686 113.817 139.855 114.05C140.023 114.282 140.215 114.49 140.428 114.685C140.642 114.881 140.856 115.064 141.092 115.223C141.317 115.382 141.542 115.504 141.767 115.565L146.356 117.129V119.927H135.344C134.32 119.927 133.51 119.842 132.914 119.671C132.318 119.487 131.8 119.231 131.384 118.864C130.968 118.51 130.585 118.046 130.259 117.483C129.933 116.921 129.528 116.249 129.044 115.467L119.921 100.351L115.849 99.2147V113.585C115.849 114.062 115.951 114.428 116.176 114.661C116.4 114.905 116.671 115.088 117.019 115.223L121.721 117.141V119.927H100.191V117.141ZM120.169 95.2921C121.406 95.2921 122.475 95.0477 123.375 94.5589C124.275 94.0701 125.017 93.4347 125.591 92.6526C126.176 91.8705 126.603 90.9663 126.885 89.952C127.166 88.9255 127.301 87.8868 127.301 86.8238C127.301 83.9765 126.648 81.9113 125.321 80.6038C124.005 79.2963 122.081 78.6487 119.561 78.6487H115.849V94.9011C116.007 94.9499 116.277 94.9866 116.659 95.0355C117.03 95.0721 117.447 95.1211 117.885 95.1577C118.324 95.2066 118.752 95.2433 119.179 95.2554C119.595 95.2799 119.921 95.2921 120.169 95.2921ZM155.899 117.141L160.814 115.186C161.197 115.052 161.489 114.868 161.681 114.636C161.883 114.392 161.984 114.037 161.984 113.561V78.5754H153.221C152.861 78.5754 152.58 78.6731 152.389 78.8808C152.186 79.0886 152.04 79.3941 151.939 79.8096L150.195 86.8604H146.27V73.2231H187.666V86.8604H183.706L181.996 79.8096C181.895 79.4185 181.737 79.113 181.513 78.9052C181.287 78.6853 181.029 78.5754 180.736 78.5754H171.917V113.561C171.917 114.037 172.03 114.404 172.277 114.648C172.513 114.905 172.783 115.076 173.087 115.186L178.037 117.141V119.927H155.899V117.141Z" fill="white" stroke="white" stroke-width="2" mask="url(#path-7-inside-1_501_2)"/>
<mask id="path-8-inside-2_501_2" fill="white">
<path d="M14.9531 126.349H24.3352V128.123H16.5967V133.825H24.2667V135.599H16.5967V142.771H24.2667V144.545H14.9531V126.349ZM34.6494 144.545V126.349H35.0032L45.9034 140.266V126.349H47.5468V144.545H47.1741L36.3386 130.75V144.545H34.6494ZM74.8105 129.398L73.5397 130.733C72.6227 129.736 71.6184 128.98 70.5265 128.465C69.4346 127.95 68.3693 127.692 67.3307 127.692C66.0408 127.692 64.812 128.042 63.6478 128.744C62.4798 129.445 61.5742 130.395 60.9351 131.599C60.2921 132.798 59.9726 134.066 59.9726 135.405C59.9726 136.773 60.3035 138.074 60.9655 139.312C61.6275 140.545 62.5445 141.512 63.7124 142.218C64.8843 142.923 66.1625 143.278 67.5551 143.278C69.2443 143.278 70.6749 142.75 71.8428 141.698C73.0108 140.646 73.7033 139.278 73.9201 137.601H68.6927V135.827H75.7692C75.754 138.636 75.0007 140.87 73.5093 142.522C72.0141 144.173 70.0205 145.001 67.517 145.001C64.481 145.001 62.0765 143.856 60.3035 141.563C58.9415 139.797 58.2605 137.757 58.2605 135.438C58.2605 133.719 58.6524 132.114 59.4323 130.627C60.2161 129.145 61.289 127.983 62.651 127.147C64.0168 126.311 65.5577 125.893 67.2773 125.893C68.6698 125.893 69.9825 126.171 71.2113 126.725C72.4401 127.282 73.6424 128.169 74.8105 129.398ZM86.3535 126.349H95.7356V128.123H87.997V133.825H95.6671V135.599H87.997V142.771H95.6671V144.545H86.3535V126.349ZM106.05 144.545V126.349H106.404L117.304 140.266V126.349H118.947V144.545H118.574L107.739 130.75V144.545H106.05ZM130.346 126.349H131.989V133.977H140.344V126.349H141.988V144.545H140.344V135.751H131.989V144.545H130.346V126.349ZM160.132 126.349L167.779 144.545H166.017L163.457 138.564H156.354L153.808 144.545H151.982L159.721 126.349H160.132ZM159.926 130.167L157.107 136.79H162.734L159.926 130.167ZM177.853 126.349H181.125C182.948 126.349 184.184 126.433 184.831 126.598C185.809 126.843 186.6 127.371 187.209 128.186C187.821 128.997 188.126 129.998 188.126 131.185C188.126 132.173 187.916 133.043 187.494 133.791C187.076 134.543 186.474 135.109 185.691 135.493C184.911 135.878 183.83 136.072 182.453 136.08L188.354 144.545H186.341L180.44 136.08H179.497V144.545H177.853V126.349ZM179.497 128.123V134.306L182.327 134.332C183.427 134.332 184.237 134.218 184.762 133.985C185.288 133.753 185.698 133.386 185.995 132.879C186.288 132.372 186.436 131.806 186.436 131.177C186.436 130.568 186.288 130.011 185.987 129.512C185.691 129.014 185.299 128.659 184.812 128.444C184.329 128.228 183.522 128.123 182.396 128.123H179.497ZM198.847 126.349H200.491V144.545H198.847V126.349ZM218.402 126.349L226.05 144.545H224.288L221.728 138.564H214.624L212.079 144.545H210.253L217.992 126.349H218.402ZM218.197 130.167L215.378 136.79H221.005L218.197 130.167Z"/>
</mask>
<path d="M14.9531 126.349H24.3352V128.123H16.5967V133.825H24.2667V135.599H16.5967V142.771H24.2667V144.545H14.9531V126.349ZM34.6494 144.545V126.349H35.0032L45.9034 140.266V126.349H47.5468V144.545H47.1741L36.3386 130.75V144.545H34.6494ZM74.8105 129.398L73.5397 130.733C72.6227 129.736 71.6184 128.98 70.5265 128.465C69.4346 127.95 68.3693 127.692 67.3307 127.692C66.0408 127.692 64.812 128.042 63.6478 128.744C62.4798 129.445 61.5742 130.395 60.9351 131.599C60.2921 132.798 59.9726 134.066 59.9726 135.405C59.9726 136.773 60.3035 138.074 60.9655 139.312C61.6275 140.545 62.5445 141.512 63.7124 142.218C64.8843 142.923 66.1625 143.278 67.5551 143.278C69.2443 143.278 70.6749 142.75 71.8428 141.698C73.0108 140.646 73.7033 139.278 73.9201 137.601H68.6927V135.827H75.7692C75.754 138.636 75.0007 140.87 73.5093 142.522C72.0141 144.173 70.0205 145.001 67.517 145.001C64.481 145.001 62.0765 143.856 60.3035 141.563C58.9415 139.797 58.2605 137.757 58.2605 135.438C58.2605 133.719 58.6524 132.114 59.4323 130.627C60.2161 129.145 61.289 127.983 62.651 127.147C64.0168 126.311 65.5577 125.893 67.2773 125.893C68.6698 125.893 69.9825 126.171 71.2113 126.725C72.4401 127.282 73.6424 128.169 74.8105 129.398ZM86.3535 126.349H95.7356V128.123H87.997V133.825H95.6671V135.599H87.997V142.771H95.6671V144.545H86.3535V126.349ZM106.05 144.545V126.349H106.404L117.304 140.266V126.349H118.947V144.545H118.574L107.739 130.75V144.545H106.05ZM130.346 126.349H131.989V133.977H140.344V126.349H141.988V144.545H140.344V135.751H131.989V144.545H130.346V126.349ZM160.132 126.349L167.779 144.545H166.017L163.457 138.564H156.354L153.808 144.545H151.982L159.721 126.349H160.132ZM159.926 130.167L157.107 136.79H162.734L159.926 130.167ZM177.853 126.349H181.125C182.948 126.349 184.184 126.433 184.831 126.598C185.809 126.843 186.6 127.371 187.209 128.186C187.821 128.997 188.126 129.998 188.126 131.185C188.126 132.173 187.916 133.043 187.494 133.791C187.076 134.543 186.474 135.109 185.691 135.493C184.911 135.878 183.83 136.072 182.453 136.08L188.354 144.545H186.341L180.44 136.08H179.497V144.545H177.853V126.349ZM179.497 128.123V134.306L182.327 134.332C183.427 134.332 184.237 134.218 184.762 133.985C185.288 133.753 185.698 133.386 185.995 132.879C186.288 132.372 186.436 131.806 186.436 131.177C186.436 130.568 186.288 130.011 185.987 129.512C185.691 129.014 185.299 128.659 184.812 128.444C184.329 128.228 183.522 128.123 182.396 128.123H179.497ZM198.847 126.349H200.491V144.545H198.847V126.349ZM218.402 126.349L226.05 144.545H224.288L221.728 138.564H214.624L212.079 144.545H210.253L217.992 126.349H218.402ZM218.197 130.167L215.378 136.79H221.005L218.197 130.167Z" fill="white" stroke="white" stroke-width="4" mask="url(#path-8-inside-2_501_2)"/>
</g>
<defs>
<filter id="filter0_d_501_2" x="0" y="0" width="241" height="153.002" filterUnits="userSpaceOnUse" color-interpolation-filters="sRGB">
<feFlood flood-opacity="0" result="BackgroundImageFix"/>
<feColorMatrix in="SourceAlpha" type="matrix" values="0 0 0 0 0 0 0 0 0 0 0 0 0 0 0 0 0 0 127 0" result="hardAlpha"/>
<feOffset dy="4"/>
<feGaussianBlur stdDeviation="2"/>
<feComposite in2="hardAlpha" operator="out"/>
<feColorMatrix type="matrix" values="0 0 0 0 0 0 0 0 0 0 0 0 0 0 0 0 0 0 0.25 0"/>
<feBlend mode="normal" in2="BackgroundImageFix" result="effect1_dropShadow_501_2"/>
<feBlend mode="normal" in="SourceGraphic" in2="effect1_dropShadow_501_2" result="shape"/>
</filter>
<linearGradient id="paint0_linear_501_2" x1="112.46" y1="59.6755" x2="112.46" y2="92.4094" gradientUnits="userSpaceOnUse">
<stop stop-color="white"/>
<stop offset="0.458824" stop-color="white"/>
<stop offset="1" stop-color="white"/>
</linearGradient>
</defs>
</svg>
