<svg width="51" height="64" viewBox="0 0 51 64" fill="none" xmlns="http://www.w3.org/2000/svg">
<path fill-rule="evenodd" clip-rule="evenodd" d="M12.4618 0.000526852C10.0504 0.0624649 8.06004 1.98877 7.92342 4.36257H6.68967C3.52385 4.36257 0.914062 6.93596 0.914062 10.0743V58.2882C0.914062 61.4266 3.52385 64 6.68967 64H44.3134C47.4792 64 50.0855 61.4266 50.0855 58.2882V10.0743C50.0855 6.93596 47.479 4.36257 44.3134 4.36257H43.079C42.9408 1.95009 40.8848 0.000526852 38.4197 0.000526852C35.9546 0.000526852 33.9022 1.94995 33.7639 4.36257H30.1591C30.0208 1.95009 27.9648 0.000526852 25.4997 0.000526852C23.0346 0.000526852 20.9822 1.94995 20.844 4.36257H17.2391C17.1009 1.95009 15.0449 0.000526852 12.5798 0.000526852C12.5402 0.000526852 12.5021 -0.000658565 12.4624 0.000526852H12.4618ZM12.5209 3.50936C12.5406 3.50817 12.5593 3.50936 12.5798 3.50936C13.2331 3.50936 13.7032 3.97538 13.7032 4.62306V7.60053C13.7032 8.24806 13.2331 8.71408 12.5798 8.71408C11.9264 8.71408 11.4564 8.24821 11.4564 7.60053V4.62306C11.4564 3.99553 11.8995 3.53722 12.5209 3.50936ZM25.441 3.50936C25.4607 3.50817 25.4794 3.50936 25.4999 3.50936C26.1532 3.50936 26.6233 3.97538 26.6233 4.62306V7.60053C26.6233 8.24806 26.1532 8.71408 25.4999 8.71408C24.8465 8.71408 24.3764 8.24821 24.3764 7.60053V4.62306C24.3764 3.99553 24.8196 3.53722 25.441 3.50936ZM38.3611 3.50936C38.3808 3.50817 38.3995 3.50936 38.42 3.50936C39.0733 3.50936 39.5434 3.97538 39.5434 4.62306V7.60053C39.5434 8.24806 39.0733 8.71408 38.42 8.71408C37.7666 8.71408 37.2965 8.24821 37.2965 7.60053V4.62306C37.2965 3.99553 37.7397 3.53722 38.3611 3.50936ZM6.68938 7.86088H7.92297C8.06138 10.2733 10.1136 12.2229 12.5787 12.2229C15.0438 12.2229 17.0997 10.2735 17.2381 7.86088H20.8429C20.9813 10.2733 23.0336 12.2229 25.4987 12.2229C27.9638 12.2229 30.0196 10.2735 30.158 7.86088H33.7629C33.9013 10.2733 35.9535 12.2229 38.4186 12.2229C40.8837 12.2229 42.9396 10.2735 43.078 7.86088H44.3117C45.5777 7.86088 46.5445 8.81944 46.5445 10.0743V58.2882C46.5445 59.5431 45.5777 60.4912 44.3117 60.4912L6.68953 60.4918C5.42379 60.4918 4.45671 59.5437 4.45671 58.2888V10.0749C4.45671 8.82003 5.42379 7.86147 6.68953 7.86147L6.68938 7.86088ZM19.8307 15.9748C19.5981 15.969 19.3666 16.0087 19.1495 16.0917C18.9324 16.1746 18.734 16.2991 18.5654 16.4581H18.5618L13.9924 20.7582L12.3056 19.0108C11.6336 18.3121 10.5184 18.2832 9.81021 18.9459C9.10545 19.6121 9.0763 20.7176 9.74489 21.4197L12.6345 24.4486C12.7944 24.6163 12.9862 24.7511 13.1988 24.8451C13.4115 24.9392 13.6407 24.9908 13.8735 24.9968C14.1063 25.0028 14.3381 24.9631 14.5555 24.8802C14.7729 24.7972 14.9716 24.6726 15.1404 24.5135L21.006 19.0106C21.1757 18.8519 21.312 18.6614 21.4072 18.4503C21.5024 18.2391 21.5545 18.0114 21.5606 17.7802C21.5667 17.549 21.5266 17.3188 21.4427 17.103C21.3587 16.8872 21.2326 16.69 21.0715 16.5227C20.9113 16.3548 20.7193 16.2199 20.5064 16.1258C20.2934 16.0318 20.0639 15.9804 19.8308 15.9746L19.8307 15.9748ZM25.371 18.7264C25.1375 18.7254 24.9061 18.7703 24.6901 18.8584C24.4742 18.9466 24.278 19.0762 24.1129 19.2399C23.9477 19.4036 23.817 19.5981 23.728 19.8122C23.6391 20.0263 23.5939 20.2557 23.5948 20.4872C23.5956 20.7176 23.6423 20.9456 23.732 21.1582C23.8218 21.3708 23.953 21.5637 24.118 21.726C24.2828 21.8883 24.4784 22.0168 24.6934 22.1041C24.9084 22.1914 25.1387 22.2357 25.371 22.2347H39.9743C40.9463 22.2311 41.7336 21.4508 41.7371 20.4872C41.7381 20.2569 41.6933 20.0286 41.6053 19.8154C41.5172 19.6023 41.3875 19.4084 41.2238 19.245C41.0601 19.0814 40.8655 18.9514 40.6511 18.8624C40.4366 18.7734 40.2066 18.7272 39.9742 18.7264H25.371ZM19.8341 31.329V31.3284C19.6014 31.3212 19.3696 31.3596 19.1518 31.4413C18.9341 31.5231 18.7348 31.6466 18.5653 31.8048H18.5618L13.9924 36.1049L12.3056 34.3575V34.3581C11.6336 33.6588 10.5184 33.6299 9.81021 34.2926C9.10545 34.9588 9.0763 36.0643 9.74474 36.7664L12.6343 39.7953C12.7942 39.9631 12.986 40.098 13.1987 40.1921C13.4113 40.2861 13.6407 40.3376 13.8735 40.3435C14.1063 40.3496 14.338 40.31 14.5554 40.2272C14.7728 40.1444 14.9716 40.0198 15.1404 39.8608L21.006 34.3579C21.7107 33.6911 21.7399 32.5856 21.0713 31.8834C20.912 31.7148 20.7207 31.5791 20.5084 31.4839C20.2961 31.3887 20.067 31.3358 19.8341 31.3284V31.329ZM25.371 34.0836C25.1384 34.0827 24.9078 34.1273 24.6925 34.2148C24.4772 34.3023 24.2815 34.4311 24.1165 34.5938C23.9515 34.7564 23.8205 34.9497 23.731 35.1626C23.6415 35.3755 23.5952 35.6038 23.5948 35.8345C23.5938 36.066 23.639 36.2955 23.7279 36.5096C23.8168 36.7237 23.9476 36.9182 24.1128 37.0818C24.278 37.2455 24.4742 37.3753 24.6901 37.4635C24.906 37.5517 25.1375 37.5968 25.371 37.596H39.9743C40.4437 37.5941 40.8931 37.4076 41.2238 37.0774C41.3875 36.9138 41.5172 36.7199 41.6052 36.5066C41.6933 36.2933 41.7381 36.0649 41.7371 35.8345C41.7353 34.8697 40.9475 34.087 39.9743 34.0836H25.371ZM19.8307 46.6793C19.5979 46.6739 19.3662 46.7141 19.1491 46.7977C18.932 46.8812 18.7336 47.0064 18.5654 47.166H18.5618L13.9924 51.4626L12.3056 49.7012C11.6336 49.0025 10.5184 48.9737 9.81021 49.6365C9.64052 49.7952 9.50416 49.9856 9.40898 50.1968C9.3138 50.4079 9.26167 50.6357 9.2556 50.8669C9.24953 51.0981 9.28963 51.3282 9.3736 51.544C9.45757 51.7597 9.58376 51.9569 9.74489 52.1242L12.6345 55.1426C12.7937 55.3111 12.985 55.4468 13.1973 55.5417C13.4097 55.6367 13.6388 55.6892 13.8717 55.696C14.3418 55.7105 14.7984 55.5381 15.1404 55.218L21.006 49.7014V49.7019C21.7085 49.0356 21.7377 47.933 21.0715 47.2309C20.9116 47.0624 20.7197 46.9269 20.5067 46.8323C20.2938 46.7376 20.0641 46.6856 19.8308 46.6793H19.8307ZM25.371 49.4309C25.1375 49.43 24.9061 49.4748 24.6901 49.563C24.4742 49.6511 24.278 49.7808 24.1129 49.9445C23.9477 50.1082 23.817 50.3027 23.728 50.5167C23.6391 50.7308 23.5939 50.9602 23.5948 51.1917C23.5956 51.4222 23.6423 51.6502 23.732 51.8627C23.8218 52.0753 23.953 52.2682 24.118 52.4305C24.2828 52.5928 24.4784 52.7213 24.6934 52.8086C24.9084 52.8959 25.1387 52.9403 25.371 52.9392H39.9743C40.9463 52.9356 41.7336 52.1553 41.7371 51.1917C41.7381 50.9614 41.6933 50.7331 41.6053 50.5199C41.5172 50.3068 41.3875 50.113 41.2238 49.9496C41.0601 49.7859 40.8655 49.6559 40.6511 49.5669C40.4366 49.4779 40.2066 49.4317 39.9742 49.4309H25.371Z" fill="#2D4C7C"/>
</svg>
