<svg width="49" height="48" viewBox="0 0 49 48" fill="none" xmlns="http://www.w3.org/2000/svg">
<path d="M42.5 37.5C42.5 35.511 41.711 33.603 40.304 32.196C38.897 30.789 36.989 30 35 30C28.841 30 20.159 30 14 30C12.011 30 10.103 30.789 8.696 32.196C7.289 33.603 6.5 35.511 6.5 37.5V45H42.5C42.5 45 42.5 42.441 42.5 37.5ZM36.5 18H42.5C44.09 18 45.617 18.633 46.742 19.758C47.867 20.883 48.5 22.41 48.5 24V33H44.489C42.803 29.454 39.188 27 35 27H32.435C34.928 24.801 36.5 21.582 36.5 18ZM4.511 33H0.5C0.5 33 0.5 28.176 0.5 24C0.5 22.41 1.133 20.883 2.258 19.758C3.383 18.633 4.91 18 6.5 18H12.5C12.5 21.582 14.072 24.801 16.565 27H14C9.812 27 6.197 29.451 4.511 33ZM24.5 9C29.468 9 33.5 13.032 33.5 18C33.5 22.968 29.468 27 24.5 27C19.532 27 15.5 22.968 15.5 18C15.5 13.032 19.532 9 24.5 9ZM12.881 14.988C12.755 14.997 12.629 15 12.5 15C9.188 15 6.5 12.312 6.5 9C6.5 5.688 9.188 3 12.5 3C15.362 3 17.759 5.01 18.356 7.692C15.683 9.291 13.682 11.898 12.881 14.988ZM30.644 7.692C31.241 5.01 33.638 3 36.5 3C39.812 3 42.5 5.688 42.5 9C42.5 12.312 39.812 15 36.5 15C36.371 15 36.245 14.997 36.119 14.988C35.318 11.898 33.317 9.291 30.644 7.692Z" fill="white"/>
</svg>
