<svg width="49" height="48" viewBox="0 0 49 48" fill="none" xmlns="http://www.w3.org/2000/svg">
<path fill-rule="evenodd" clip-rule="evenodd" d="M39.2922 12.033C40.5997 12.2509 41.4828 13.4875 41.2649 14.7949L38.9538 28.6609L43.6051 44.9406C43.9692 46.215 43.2312 47.5434 41.9568 47.9075C40.6825 48.2715 39.3541 47.5338 38.99 46.2592L34.1901 29.4594C34.0921 29.1169 34.0717 28.7569 34.1303 28.4056L36.5303 14.0058C36.7482 12.6984 37.9847 11.8151 39.2922 12.033Z" fill="white"/>
<path fill-rule="evenodd" clip-rule="evenodd" d="M37.1606 26.4914C35.8862 26.1273 34.5578 26.8651 34.1938 28.1397L29.3938 44.9395C29.0295 46.2138 29.7675 47.5422 31.0421 47.9063C32.3165 48.2704 33.6449 47.5326 34.009 46.258L38.8089 29.4582C39.173 28.1838 38.435 26.8555 37.1606 26.4914Z" fill="white"/>
<path fill-rule="evenodd" clip-rule="evenodd" d="M23.8268 3.30119C22.9988 4.33623 23.1665 5.8465 24.2016 6.67451L30.2016 11.4744C30.2488 11.5122 30.2976 11.5483 30.3475 11.5824L30.5565 11.725L31.126 12.1121C31.6077 12.4391 32.2759 12.8919 33.023 13.3947C34.5105 14.3957 36.3332 15.6112 37.6122 16.4251C38.4402 16.952 39.4599 17.945 40.3561 18.94C40.7828 19.4141 41.1464 19.8485 41.4024 20.1638C41.4358 20.2049 41.4675 20.244 41.497 20.2805L43.7724 29.3821C44.0938 30.668 45.3967 31.4499 46.6826 31.1283C47.9685 30.807 48.7504 29.504 48.4288 28.2181L46.0289 18.6182C45.9501 18.3033 45.8085 18.0076 45.6122 17.7491L43.7007 19.2003C45.6122 17.7491 45.6122 17.7491 45.6122 17.7491L45.6079 17.7434L45.5997 17.7327L45.5724 17.6973C45.5496 17.6675 45.5172 17.6256 45.4759 17.5729C45.3934 17.4676 45.2755 17.3188 45.1279 17.137C44.8334 16.7746 44.4163 16.276 43.9227 15.728C42.978 14.6788 41.5976 13.2719 40.1893 12.3756C38.9677 11.5982 37.1905 10.4137 35.703 9.41264C34.9629 8.91435 34.3 8.46544 33.8224 8.14111L33.2586 7.75779L33.1286 7.66918L27.2002 2.92639C26.1651 2.09838 24.6548 2.26618 23.8268 3.30119Z" fill="white"/>
<path fill-rule="evenodd" clip-rule="evenodd" d="M46.0999 4.79993C46.0999 2.149 43.9509 0 41.2999 0C38.6489 0 36.5 2.149 36.5 4.79993C36.5 7.45086 38.6489 9.59987 41.2999 9.59987C43.9509 9.59987 46.0999 7.45086 46.0999 4.79993Z" fill="white"/>
<path fill-rule="evenodd" clip-rule="evenodd" d="M9.70677 12.033C8.39934 12.2509 7.51611 13.4875 7.73402 14.7949L10.045 28.6609L5.39374 44.9406C5.0296 46.215 5.76759 47.5434 7.04204 47.9075C8.31652 48.2715 9.64486 47.5338 10.009 46.2592L14.8089 29.4594C14.9068 29.1169 14.9272 28.7569 14.8686 28.4056L12.4687 14.0058C12.2507 12.6984 11.0142 11.8151 9.70677 12.033Z" fill="white"/>
<path fill-rule="evenodd" clip-rule="evenodd" d="M11.8389 26.4914C13.1134 26.1273 14.4417 26.8651 14.8059 28.1397L19.6058 44.9395C19.9698 46.2138 19.232 47.5422 17.9575 47.9063C16.683 48.2704 15.3547 47.5326 14.9906 46.258L10.1906 29.4582C9.82647 28.1838 10.5645 26.8555 11.8389 26.4914Z" fill="white"/>
<path fill-rule="evenodd" clip-rule="evenodd" d="M25.1744 3.30119C26.0024 4.33623 25.8344 5.8465 24.7995 6.67451L18.7996 11.4744C18.7523 11.5122 18.7036 11.5483 18.6536 11.5824L18.4445 11.725L17.8752 12.1121C17.3935 12.4391 16.7252 12.8919 15.9781 13.3947C14.4907 14.3957 12.6679 15.6112 11.3889 16.4251C10.5609 16.952 9.54121 17.945 8.64519 18.94C8.21826 19.4141 7.85476 19.8485 7.59866 20.1638C7.56525 20.2049 7.53376 20.244 7.50424 20.2805L5.22883 29.3821C4.90738 30.668 3.60434 31.4499 2.31847 31.1283C1.03256 30.807 0.25075 29.504 0.572226 28.2181L2.97219 18.6182C3.05091 18.3033 3.1927 18.0076 3.38897 17.7491L5.3005 19.2003C3.38897 17.7491 3.38897 17.7491 3.38897 17.7491L3.39331 17.7434L3.40143 17.7327L3.42864 17.6973C3.45159 17.6675 3.48403 17.6256 3.52529 17.5729C3.60775 17.4676 3.72566 17.3188 3.87331 17.137C4.16776 16.7746 4.58487 16.276 5.07838 15.728C6.0232 14.6788 7.40349 13.2719 8.81196 12.3756C10.0335 11.5982 11.8106 10.4137 13.298 9.41264C14.0384 8.91435 14.7011 8.46544 15.1788 8.14111L15.7425 7.75779L15.8725 7.66918L21.801 2.92639C22.8361 2.09838 24.3464 2.26618 25.1744 3.30119Z" fill="white"/>
<path fill-rule="evenodd" clip-rule="evenodd" d="M12.4983 4.79993C12.4983 2.149 10.3493 0 7.69837 0C5.04744 0 2.89844 2.149 2.89844 4.79993C2.89844 7.45086 5.04744 9.59987 7.69837 9.59987C10.3493 9.59987 12.4983 7.45086 12.4983 4.79993Z" fill="white"/>
</svg>
